HIERARCHY
ROOT Hips
{
	OFFSET 0.00000 0.00000 0.00000
	CHANNELS 6 Xposition Yposition Zposition Zrotation Yrotation Xrotation 
	JOINT RightUpLegDummy
	{
		OFFSET 0 0 0
		CHANNELS 3 Zrotation Yrotation Xrotation
		JOINT RightUpLeg
		{
			OFFSET -3.52197 -3.41223 0.04002
			CHANNELS 3 Zrotation Yrotation Xrotation
			JOINT RightLeg
			{
				OFFSET 0.00006 -17.42390 1.60435
				CHANNELS 3 Zrotation Yrotation Xrotation
				JOINT RightFoot
				{
					OFFSET 0.06153 -16.50078 -1.63901
					CHANNELS 3 Zrotation Yrotation Xrotation
					JOINT RightToes
					{
						OFFSET 0.00298 -1.73825 3.34613
						CHANNELS 3 Zrotation Yrotation Xrotation
						End Site
						{
							OFFSET 0.00480 -0.05416 3.85043
						}
					}
				}
			}
		}
	}
	JOINT SpineDummy
	{
		OFFSET 0 0 0
		CHANNELS 3 Zrotation Yrotation Xrotation
		JOINT Spine
		{
			OFFSET 0.00000 4.68130 0.00000
			CHANNELS 3 Zrotation Yrotation Xrotation
			JOINT Spine1
			{
				OFFSET -0.00000 10.10138 0.05002
				CHANNELS 3 Zrotation Yrotation Xrotation
				JOINT HEadDummy
				{
					OFFSET 0 0 0
					CHANNELS 3 Zrotation Yrotation Xrotation
					JOINT Head
					{
						OFFSET -0.00000 3.43865 0.00438
						CHANNELS 3 Zrotation Yrotation Xrotation
						End Site
						{
							OFFSET -0.11417 5.02924 0.98962
						}
					}
				}
				JOINT LeftShoulder1Dummy
				{
					OFFSET 0 0 0
					CHANNELS 3 Zrotation Yrotation Xrotation
					JOINT LeftShoulder1
					{
						OFFSET 3.53937 -0.14262 -0.08662
						CHANNELS 3 Zrotation Yrotation Xrotation
						JOINT LeftArm
						{
							OFFSET 4.04833 -0.00133 0.12681
							CHANNELS 3 Zrotation Yrotation Xrotation
							JOINT LeftForeArm
							{
								OFFSET 10.33880 -0.01036 -0.55515
								CHANNELS 3 Zrotation Yrotation Xrotation
								JOINT LeftHand
								{
									OFFSET 8.69677 0.07543 0.40060
									CHANNELS 3 Zrotation Yrotation Xrotation
									End Site
									{
										OFFSET 5.28377 -0.21905 0.59205
									}
								}
							}
						}
					}
				}
				JOINT RightShoulderDummy
				{
					OFFSET 0 0 0
					CHANNELS 3 Zrotation Yrotation Xrotation
					JOINT RightShoulder
					{
						OFFSET -3.53937 -0.14262 -0.08660
						CHANNELS 3 Zrotation Yrotation Xrotation
						JOINT RightArm
						{
							OFFSET -4.04833 -0.00133 0.12683
							CHANNELS 3 Zrotation Yrotation Xrotation
							JOINT RightForeArm
							{
								OFFSET -10.37987 -0.01039 -0.55511
								CHANNELS 3 Zrotation Yrotation Xrotation
								JOINT RightHand
								{
									OFFSET -8.67398 0.07538 0.40058
									CHANNELS 3 Zrotation Yrotation Xrotation
									End Site
									{
										OFFSET -5.24810 -0.21916 0.59204
									}
								}
							}
						}
					}
				}
			}
		}
	}
	JOINT LeftUpLegDummy
	{
		OFFSET 0 0 0
		CHANNELS 3 Zrotation Yrotation Xrotation
		JOINT LeftUpLeg
		{
			OFFSET 3.52197 -3.41223 0.04002
			CHANNELS 3 Zrotation Yrotation Xrotation
			JOINT LeftLeg
			{
				OFFSET -0.00012 -17.42399 1.60337
				CHANNELS 3 Zrotation Yrotation Xrotation
				JOINT LeftFoot
				{
					OFFSET -0.09972 -16.50070 -1.63802
					CHANNELS 3 Zrotation Yrotation Xrotation
					JOINT LeftToes
					{
						OFFSET -0.01575 -1.73823 3.34611
						CHANNELS 3 Zrotation Yrotation Xrotation
						End Site
						{
							OFFSET 0.03150 -0.01868 3.85031
						}
					}
				}
			}
		}
	}
}
MOTION
Frames: 8
Frame Time: 0.033333
5.5392 40.2920 -80.4792 -1.8113 -2.6947 -1.9563 0.0000 0.0000 0.0000 3.2650 -0.9787 1.9970 -1.1553 -6.3064 3.5637 -2.5401 0.1561 -3.6976 0.0000 -0.0000 -0.0000 0.0000 0.0000 0.0000 0.8983 -0.3662 2.2283 3.5883 -1.1501 1.8340 -0.0000 0.0000 -0.0000 3.7120 -0.4191 -12.7267 -0.0000 0.0000 -0.0000 -33.7152 -2.6443 2.4437 -46.3952 -16.1718 -16.7824 -10.3009 5.0410 51.0825 14.0742 -4.3700 -1.1501 -0.0000 0.0000 -0.0000 34.7725 5.1586 3.5336 38.9406 7.7643 -16.0043 10.8403 -0.8553 25.8347 -11.8787 2.1256 -0.7519 0.0000 0.0000 0.0000 0.2447 1.5652 0.7913 -0.1239 2.1154 6.4217 4.6084 -0.2101 -5.3284 0.0000 0.0000 -0.0000
5.6005 40.2815 -80.4414 -1.8262 -2.5612 -1.9474 0.0000 0.0000 0.0000 3.1760 -0.9962 1.9322 -1.2374 -6.4091 3.8082 -2.0188 0.1178 -3.8641 0.0000 -0.0000 -0.0000 0.0000 0.0000 0.0000 0.8195 -0.3644 2.2945 3.6242 -1.1491 1.7413 -0.0000 0.0000 -0.0000 3.9237 -0.8851 -12.4474 -0.0000 0.0000 -0.0000 -33.7152 -2.6894 2.4616 -46.5269 -16.1966 -16.7083 -10.3269 5.0442 50.9678 14.0164 -4.2974 -1.1369 -0.0000 0.0000 -0.0000 34.7209 5.1464 3.5241 38.8898 7.4761 -16.3264 10.7438 -1.1356 25.9329 -11.9618 1.9877 -0.7442 0.0000 0.0000 0.0000 0.2046 1.6152 0.7447 -0.2326 1.9777 6.5828 4.7412 -0.2133 -5.4071 0.0000 0.0000 -0.0000
5.7161 40.2608 -80.3683 -1.9271 -2.4244 -1.8961 0.0000 0.0000 0.0000 3.1165 -0.9635 1.7411 -1.3989 -6.5031 4.3146 -1.4751 0.0767 -4.1858 0.0000 -0.0000 -0.0000 0.0000 0.0000 0.0000 0.7550 -0.3928 2.2996 3.7014 -1.1903 1.6868 -0.0000 0.0000 -0.0000 4.5093 -1.8631 -11.8642 -0.0000 0.0000 -0.0000 -33.7186 -2.7178 2.4727 -46.7514 -16.1817 -16.5445 -10.3916 5.0471 50.8473 13.9862 -4.3004 -1.1347 -0.0000 0.0000 -0.0000 34.6454 5.1350 3.5128 38.8145 6.9382 -16.8368 10.5697 -1.4254 26.1306 -11.9225 1.8096 -0.7247 0.0000 0.0000 0.0000 0.1734 1.7179 0.6008 -0.3595 1.8603 6.9445 5.0063 -0.2170 -5.6091 0.0000 0.0000 -0.0000
5.8378 40.2384 -80.2875 -2.1293 -2.4343 -1.8363 0.0000 0.0000 0.0000 3.1618 -0.8963 1.5573 -1.5085 -6.4911 4.7971 -1.3002 0.0614 -4.4622 0.0000 -0.0000 -0.0000 0.0000 0.0000 0.0000 0.7521 -0.4474 2.2441 3.8519 -1.2785 1.7018 -0.0000 0.0000 -0.0000 5.3871 -3.3162 -10.9598 -0.0000 0.0000 -0.0000 -33.7046 -2.7052 2.4669 -46.9503 -16.1176 -16.3487 -10.4767 5.0478 50.7914 14.1933 -4.2813 -1.1500 -0.0000 0.0000 -0.0000 34.5506 5.1265 3.5011 38.8796 6.0804 -17.1351 10.4537 -0.8761 25.7993 -11.7806 1.7787 -0.7129 0.0000 0.0000 0.0000 0.2256 1.8637 0.4495 -0.4307 1.8621 7.3671 5.2495 -0.2142 -5.8988 0.0000 0.0000 -0.0000
5.9502 40.2161 -80.2049 -2.3571 -2.5612 -1.8113 0.0000 0.0000 0.0000 3.2333 -0.8439 1.4764 -1.5438 -6.3831 5.1659 -1.2797 0.0564 -4.6809 0.0000 -0.0000 -0.0000 0.0000 0.0000 0.0000 0.7099 -0.5240 2.1962 4.0912 -1.4051 1.6834 -0.0000 0.0000 -0.0000 6.7120 -5.3550 -9.6020 -0.0000 0.0000 -0.0000 -33.5600 -2.6976 2.4548 -47.1755 -16.0352 -16.2619 -10.4963 5.0453 50.8642 14.5605 -4.1240 -1.1624 -0.0000 0.0000 -0.0000 34.5169 5.1255 3.4977 39.0799 4.5430 -16.9174 10.5784 1.2415 24.2339 -11.7345 1.8666 -0.7183 0.0000 0.0000 0.0000 0.3137 2.0001 0.3761 -0.4539 1.9422 7.7682 5.3803 -0.2023 -6.2400 0.0000 0.0000 -0.0000
6.0688 40.1903 -80.1105 -2.5205 -2.7503 -1.8008 0.0000 0.0000 0.0000 3.2219 -0.7992 1.4089 -1.5971 -6.1828 5.5879 -1.1298 0.0447 -4.9838 0.0000 -0.0000 -0.0000 0.0000 0.0000 0.0000 0.4684 -0.6591 2.0702 4.5078 -1.6212 1.6601 -0.0000 0.0000 -0.0000 8.6462 -8.1064 -7.7085 -0.0000 0.0000 -0.0000 -33.2820 -2.7055 2.4405 -47.4791 -15.9004 -16.3564 -10.4122 5.0394 51.0900 14.6891 -3.9803 -1.1559 -0.0000 0.0000 -0.0000 34.5189 5.1220 3.4964 39.3415 2.2553 -15.5405 10.8392 5.0465 21.2251 -11.6965 1.9550 -0.7241 0.0000 0.0000 0.0000 0.3147 2.0779 0.3572 -0.4441 2.1226 8.1516 5.4497 -0.1859 -6.6022 0.0000 0.0000 -0.0000
6.2048 40.1636 -80.0035 -2.6078 -3.0409 -1.7789 0.0000 0.0000 0.0000 3.1011 -0.7541 1.2728 -1.6747 -5.8539 6.1294 -0.8317 0.0248 -5.3313 0.0000 -0.0000 -0.0000 0.0000 0.0000 0.0000 -0.0645 -0.9189 1.7284 5.2730 -2.0343 1.8141 -0.0000 0.0000 -0.0000 10.7567 -11.6865 -5.1240 -0.0000 0.0000 -0.0000 -33.0910 -2.6816 2.4193 -47.7446 -15.6040 -16.4727 -10.3428 5.0333 51.3151 14.5286 -3.9616 -1.1406 -0.0000 0.0000 -0.0000 34.3683 5.0884 3.4697 39.7855 -0.2447 -10.3777 10.2196 10.2438 15.1560 -11.4301 1.9926 -0.7106 0.0000 0.0000 0.0000 0.1902 2.1107 0.3732 -0.3978 2.4947 8.4839 5.5413 -0.1716 -6.9344 0.0000 0.0000 -0.0000
6.3479 40.1408 -79.8980 -2.6802 -3.5627 -1.7989 0.0000 0.0000 0.0000 2.9319 -0.7445 1.1459 -1.6690 -5.2945 6.6759 -0.5517 0.0059 -5.5451 0.0000 -0.0000 -0.0000 0.0000 0.0000 0.0000 -0.8102 -1.3173 1.2304 6.3931 -2.6695 2.2311 -0.0000 0.0000 -0.0000 12.2875 -16.1460 -1.5913 -0.0000 0.0000 -0.0000 -33.1186 -2.6070 2.3918 -47.8545 -15.0955 -16.4066 -10.4214 5.0324 51.3132 14.5910 -3.8135 -1.1280 -0.0000 0.0000 -0.0000 34.0552 5.0290 3.4187 40.3735 -2.3503 -1.4595 7.6225 15.6342 5.9989 -11.0519 1.9878 -0.6859 0.0000 0.0000 0.0000 0.0266 2.1413 0.4967 -0.2980 3.1170 8.7263 5.6416 -0.1593 -7.2271 0.0000 0.0000 -0.0000
